<?xml version="1.0" standalone="no"?>
<!DOCTYPE svg PUBLIC "-//W3C//DTD SVG 20010904//EN"
 "http://www.w3.org/TR/2001/REC-SVG-20010904/DTD/svg10.dtd">
<svg version="1.0" xmlns="http://www.w3.org/2000/svg"
 width="355.000000pt" height="190.000000pt" viewBox="0 0 355.000000 190.000000"
 preserveAspectRatio="xMidYMid meet">

<g transform="translate(0.000000,190.000000) scale(0.100000,-0.100000)"
fill="#000000" stroke="none">
<path d="M1500 1850 c0 -5 8 -13 17 -18 15 -9 15 -14 -2 -77 -15 -58 -52 -141
-85 -195 -33 -53 -90 -151 -90 -154 0 -16 -107 -160 -149 -200 -27 -26 -76
-86 -107 -132 -31 -46 -58 -84 -60 -84 -5 0 43 115 79 190 46 95 51 134 18
138 -38 6 -101 -67 -216 -247 -91 -143 -195 -247 -195 -196 0 24 70 203 112
288 36 73 88 250 88 300 0 85 -82 75 -196 -25 -46 -40 -186 -204 -239 -278
-21 -30 -43 -59 -49 -65 -7 -5 -28 -35 -49 -65 -21 -30 -64 -93 -97 -140 -100
-141 -173 -286 -219 -433 -31 -99 -30 -262 2 -325 31 -64 67 -84 142 -79 51 3
70 10 125 47 90 60 172 141 311 305 l118 140 83 33 c46 19 148 62 228 97 164
71 197 82 365 125 66 17 131 35 145 40 14 5 41 11 60 14 19 3 61 14 93 25 31
11 57 18 57 16 0 -3 29 6 65 20 36 13 66 23 68 22 1 -1 29 8 62 20 63 22 150
49 250 78 33 9 87 25 120 36 33 10 62 19 65 18 3 0 30 9 60 21 30 12 62 23 70
25 8 2 36 12 63 24 26 11 48 19 50 18 1 -1 21 6 42 15 22 9 78 33 124 53 46
20 107 53 136 73 29 21 72 44 96 52 48 14 313 102 369 121 19 7 54 19 78 27
29 10 42 20 42 33 0 15 -4 17 -17 10 -10 -5 -67 -25 -128 -44 -60 -20 -163
-54 -228 -76 -68 -24 -137 -41 -162 -41 -77 0 -192 -32 -353 -99 -40 -17 -90
-33 -110 -37 -20 -3 -45 -8 -54 -11 -12 -3 -18 1 -18 11 0 22 -33 20 -55 -4
-10 -11 -22 -20 -27 -20 -4 0 -8 9 -8 20 0 26 -29 26 -63 0 -33 -26 -38 -25
-35 6 4 40 -22 52 -66 31 l-36 -16 35 48 c20 27 42 54 50 61 17 14 20 36 5 45
-16 10 -34 -9 -141 -147 -54 -69 -113 -136 -130 -149 l-31 -22 17 29 c9 16 34
56 56 89 21 33 45 71 51 85 15 30 114 178 136 203 8 9 29 40 46 67 17 28 49
75 70 106 32 45 37 57 25 65 -24 15 -36 10 -56 -20 -10 -16 -54 -75 -98 -131
-90 -115 -124 -164 -298 -425 -14 -22 -40 -56 -57 -75 -27 -31 -25 -25 16 48
58 106 51 137 -23 93 -18 -12 -40 -17 -53 -14 -15 4 -30 -3 -51 -23 -23 -22
-29 -24 -29 -11 0 27 -53 21 -89 -9 l-31 -26 6 30 c11 53 -41 51 -84 -3 -25
-31 -34 -32 -30 -2 2 17 -2 23 -23 25 -21 2 -37 -8 -77 -53 l-51 -55 -3 42
c-4 60 -28 62 -84 7 -24 -24 -44 -40 -44 -37 0 14 64 138 100 193 39 61 50 79
155 260 61 106 95 196 95 251 0 32 -2 34 -35 34 -19 0 -35 -4 -35 -10z m-643
-423 c-5 -58 -27 -132 -62 -212 -7 -16 -27 -64 -45 -105 -17 -41 -37 -88 -45
-105 -53 -120 -58 -142 -35 -165 12 -12 34 -20 52 -20 45 0 120 80 231 245 90
135 126 185 127 173 0 -8 -36 -88 -50 -108 -18 -28 -49 -107 -59 -151 -9 -38
-8 -46 7 -59 18 -15 15 -20 -47 -101 -183 -238 -184 -240 -295 -294 -55 -28
-128 -65 -161 -82 -33 -17 -106 -53 -162 -79 -102 -49 -119 -66 -71 -72 31 -4
105 30 275 124 133 75 167 89 135 56 -9 -11 -44 -50 -77 -88 -173 -200 -307
-304 -393 -304 -38 0 -89 51 -98 98 -13 69 2 223 31 306 39 117 130 297 182
361 5 6 25 35 45 65 55 81 124 176 204 281 102 134 270 294 313 299 2 0 1 -28
-2 -63z m2007 -132 c-23 -13 -77 -38 -120 -55 -44 -17 -93 -38 -111 -46 -17
-8 -36 -14 -42 -14 -6 0 -35 -11 -66 -24 -30 -14 -55 -23 -55 -21 0 2 -24 -6
-52 -17 -29 -10 -57 -20 -63 -22 -5 -1 -30 -9 -55 -18 -44 -16 -125 -42 -280
-88 -41 -13 -99 -31 -127 -41 -29 -10 -53 -17 -53 -14 0 2 -18 -2 -41 -10 -22
-8 -84 -26 -137 -39 -53 -14 -130 -34 -170 -44 -90 -23 -82 -13 23 28 44 17
94 37 110 45 17 8 67 27 110 43 44 17 96 37 115 45 83 36 152 59 178 59 15 0
37 9 50 21 12 11 22 18 22 14 0 -3 15 0 34 8 32 14 34 13 29 -5 -7 -27 20 -36
48 -17 16 12 26 13 39 5 15 -10 28 -2 79 42 59 51 64 53 115 51 44 -2 66 5
132 38 71 35 151 62 269 90 61 14 63 13 19 -14z m-614 -39 c0 -13 -31 -74 -42
-83 -7 -6 -26 -15 -42 -19 -29 -7 -29 -6 19 49 42 49 65 68 65 53z m-436 -133
c-20 -33 -34 -68 -32 -82 3 -21 -5 -27 -72 -53 -41 -16 -88 -36 -105 -45 -16
-10 -31 -16 -33 -14 -4 4 -274 -110 -527 -224 -93 -42 -227 -96 -230 -93 -2 1
29 42 68 89 40 48 104 128 142 178 61 79 73 91 93 86 19 -5 33 4 70 42 26 26
61 66 79 88 l32 40 0 -37 c1 -20 -4 -49 -9 -64 -8 -21 -8 -31 3 -41 20 -20 43
-6 68 40 22 44 88 124 77 95 -4 -9 -10 -33 -14 -52 -7 -41 10 -55 46 -36 20
11 21 10 10 -11 -10 -17 -9 -23 1 -30 20 -13 25 -11 47 14 10 12 45 49 76 82
l57 60 -26 -54 c-15 -29 -24 -59 -21 -67 8 -20 33 -17 56 6 14 14 28 18 43 14
19 -4 29 2 52 33 27 37 76 93 81 93 1 0 -13 -26 -32 -57z m106 -47 c0 -3 -4
-8 -10 -11 -5 -3 -10 -1 -10 4 0 6 5 11 10 11 6 0 10 -2 10 -4z"/>
<path d="M2951 1106 c-15 -17 12 -48 34 -40 20 8 19 40 -1 48 -21 8 -20 8 -33
-8z"/>
</g>
</svg>
